<svg xmlns="http://www.w3.org/2000/svg" width="480" height="480"><path style="stroke:none;fill-rule:nonzero;fill:#8bc34a;fill-opacity:1" d="M479.785 235.621c.828-51.133-10.691-111.937-34.691-183.277L426.277-3.602l-25.562 53.2c-1.367 2.843-2.926 5.625-4.559 8.375C354.168 21.926 299.687 0 240 0 107.45 0 0 107.45 0 240s107.45 240 240 240 240-107.45 240-240c0-1.477-.191-2.902-.215-4.379Zm0 0"/><path style="stroke:none;fill-rule:nonzero;fill:#fff;fill-opacity:1" d="M424.621 342.695C387.145 394.32 320.81 397.094 258.371 396H153.742c53.137-19.117 84.758-23.664 117.051-40.8 60.816-31.981 120.934-101.954 133.45-174.743-23.157 70.031-93.348 130.2-157.305 154.668-43.825 16.715-122.977 32.938-122.977 32.938l-3.203-1.739c-53.883-27.11-55.516-147.758 42.441-186.707 42.89-17.078 83.918-7.691 130.25-19.117C342.91 148.355 400.13 110.004 423.406 60c26.067 80.004 57.434 205.273 1.215 282.695ZM140.016 413.34c-3.383 4.2-8.555 6.66-13.957 6.66-9.875 0-17.938-8.125-17.938-18s8.121-18 17.938-18c4.093 0 8.125 1.414 11.293 4.031 7.68 6.23 8.878 17.63 2.664 25.309Zm0 0"/></svg>