<?xml version="1.0" encoding="UTF-8"?>
<svg xmlns="http://www.w3.org/2000/svg" xmlns:xlink="http://www.w3.org/1999/xlink" viewBox="0 0 480 480" width="480px" height="480px">
<g id="surface90449792">
<path style=" stroke:none;fill-rule:nonzero;fill:rgb(54.509807%,76.47059%,29.019609%);fill-opacity:1;" d="M 479.785156 235.621094 C 480.613281 184.488281 469.09375 123.683594 445.09375 52.34375 L 426.277344 -3.601562 L 400.714844 49.597656 C 399.347656 52.441406 397.789062 55.222656 396.15625 57.972656 C 354.167969 21.925781 299.6875 0 240 0 C 107.449219 0 0 107.449219 0 240 C 0 372.550781 107.449219 480 240 480 C 372.550781 480 480 372.550781 480 240 C 480 238.523438 479.808594 237.097656 479.785156 235.621094 Z M 479.785156 235.621094 "/>
<path style=" stroke:none;fill-rule:nonzero;fill:rgb(100%,100%,100%);fill-opacity:1;" d="M 424.621094 342.695312 C 387.144531 394.320312 320.808594 397.09375 258.371094 396 L 153.742188 396 C 206.878906 376.882812 238.5 372.335938 270.792969 355.199219 C 331.609375 323.21875 391.726562 253.246094 404.242188 180.457031 C 381.085938 250.488281 310.894531 310.65625 246.9375 335.125 C 203.113281 351.839844 123.960938 368.0625 123.960938 368.0625 L 120.757812 366.324219 C 66.875 339.214844 65.242188 218.566406 163.199219 179.617188 C 206.089844 162.539062 247.117188 171.925781 293.449219 160.5 C 342.910156 148.355469 400.128906 110.003906 423.40625 60 C 449.472656 140.003906 480.839844 265.273438 424.621094 342.695312 Z M 140.015625 413.339844 C 136.632812 417.539062 131.460938 420 126.058594 420 C 116.183594 420 108.121094 411.875 108.121094 402 C 108.121094 392.125 116.242188 384 126.058594 384 C 130.152344 384 134.183594 385.414062 137.351562 388.03125 C 145.03125 394.261719 146.230469 405.660156 140.015625 413.339844 Z M 140.015625 413.339844 "/>
</g>
</svg>
